<?xml version="1.0" encoding="UTF-8" standalone="no"?>
<!-- Created with Inkscape (http://www.inkscape.org/) -->
<svg xmlns:dc="http://purl.org/dc/elements/1.1/" xmlns:cc="http://creativecommons.org/ns#" xmlns:rdf="http://www.w3.org/1999/02/22-rdf-syntax-ns#" xmlns:svg="http://www.w3.org/2000/svg" xmlns="http://www.w3.org/2000/svg" xmlns:sodipodi="http://sodipodi.sourceforge.net/DTD/sodipodi-0.dtd" xmlns:inkscape="http://www.inkscape.org/namespaces/inkscape" width="210mm" height="297mm" id="svg2" version="1.1" inkscape:version="0.47 r22583" sodipodi:docname="mouse.svg">
  <defs id="defs4">
    <inkscape:perspective sodipodi:type="inkscape:persp3d" inkscape:vp_x="0 : 526.18109 : 1" inkscape:vp_y="0 : 1000 : 0" inkscape:vp_z="744.09448 : 526.18109 : 1" inkscape:persp3d-origin="372.04724 : 350.78739 : 1" id="perspective10"/>
    <inkscape:perspective id="perspective2884" inkscape:persp3d-origin="0.5 : 0.33333333 : 1" inkscape:vp_z="1 : 0.5 : 1" inkscape:vp_y="0 : 1000 : 0" inkscape:vp_x="0 : 0.5 : 1" sodipodi:type="inkscape:persp3d"/>
  </defs>
  <sodipodi:namedview id="base" pagecolor="#ffffff" bordercolor="#666666" borderopacity="1.0" inkscape:pageopacity="0.0" inkscape:pageshadow="2" inkscape:zoom="1.2196032" inkscape:cx="261.16384" inkscape:cy="712.45793" inkscape:document-units="px" inkscape:current-layer="layer1" showgrid="false" inkscape:window-width="1920" inkscape:window-height="990" inkscape:window-x="0" inkscape:window-y="28" inkscape:window-maximized="1"/>
  <g inkscape:label="Camada 1" inkscape:groupmode="layer" id="layer1">
    <path id="path3747" d="m 332.86279,171.39163 c -10.27681,0 -18.625,8.34819 -18.625,18.625 l 0,34.75 0,2.1875 0,2.21875 0,75.53125 c 0,35.85069 28.93056,64.78125 64.78125,64.78125 35.85069,0 64.8125,-28.92925 64.8125,-64.78125 l 0,-77.75 0,-2.1875 -0.0312,0 0,-34.75 c 0,-10.27681 -8.34819,-18.625 -18.625,-18.625 l -92.3125,0 z" style="font-size:medium;font-style:normal;font-variant:normal;font-weight:normal;font-stretch:normal;text-indent:0;text-align:start;text-decoration:none;line-height:normal;letter-spacing:normal;word-spacing:normal;text-transform:none;direction:ltr;block-progression:tb;writing-mode:lr-tb;text-anchor:start;color:#000000;fill:#b3b3b3;fill-opacity:1;stroke:none;stroke-width:4.4369998;marker:none;visibility:visible;display:inline;overflow:visible;enable-background:accumulate;font-family:Bitstream Charter;-inkscape-font-specification:Bitstream Charter"/>
    <path style="font-size:medium;font-style:normal;font-variant:normal;font-weight:normal;font-stretch:normal;text-indent:0;text-align:start;text-decoration:none;line-height:normal;letter-spacing:normal;word-spacing:normal;text-transform:none;direction:ltr;block-progression:tb;writing-mode:lr-tb;text-anchor:start;color:#000000;fill:#b3b3b3;fill-opacity:1;stroke:none;stroke-width:5;marker:none;visibility:visible;display:inline;overflow:visible;enable-background:accumulate;font-family:Bitstream Charter;-inkscape-font-specification:Bitstream Charter" d="m 329.84049,90.296475 c -8.45863,0.45645 -16.31887,3.25642 -22.99751,7.60295 -8.85343,5.761905 -15.69418,13.881165 -21.37529,22.808845 -11.3649,17.85958 -18.47,39.55399 -23.95176,57.3677 -6.21517,20.19699 -10.10215,35.94416 -14.37742,46.53926 -4.31101,10.68366 -7.7641,15.45458 -15.23625,19.28713 -10.84795,5.56405 -18.156,4.6381 -26.87815,0.92157 -8.58154,-3.65662 -17.58802,-11.03099 -26.21016,-18.33265 l -1.97213,-1.64566 -1.62223,2.04062 -17.1285,6.27248 c 10.52552,9.61844 24.57029,29.75902 37.23144,36.02098 13.58043,5.78663 30.73142,7.11289 47.87173,-1.67857 13.57885,-6.96476 21.87143,-19.0467 27.38708,-32.71572 5.4874,-13.59902 9.21175,-29.34084 15.17263,-48.71153 5.31584,-17.27454 12.22098,-37.19791 20.92996,-50.88381 4.35313,-6.84079 9.12119,-12.02233 13.70945,-15.00841 4.66846,-3.0383 8.79134,-4.19505 14.82274,-3.39006 7.31551,0.97638 12.19125,2.74466 15.68157,5.20028 3.49031,2.45562 5.73115,5.62775 7.76126,9.9727 3.93578,8.42356 5.38608,22.41384 5.08935,38.87049 l -0.0318,2.63305 2.54468,0.0329 20.35741,0.39496 2.54468,0.0658 0.0318,-2.63306 c 0.32299,-17.9136 -0.45992,-35.4965 -7.63403,-50.85089 -7.25112,-15.51921 -22.22194,-27.036985 -43.06865,-29.819345 -2.92396,-0.39026 -5.83014,-0.51431 -8.6519,-0.36205 l 0,5e-5 z" id="path3772" sodipodi:nodetypes="csssssscccccssssssssccccccsscc"/>
    <path style="font-size:medium;font-style:normal;font-variant:normal;font-weight:normal;font-stretch:normal;text-indent:0;text-align:start;text-decoration:none;line-height:normal;letter-spacing:normal;word-spacing:normal;text-transform:none;direction:ltr;block-progression:tb;writing-mode:lr-tb;text-anchor:start;color:#000000;fill:#ffffff;fill-opacity:1;stroke:none;stroke-width:4;marker:none;visibility:visible;display:inline;overflow:visible;enable-background:accumulate;font-family:Bitstream Charter;-inkscape-font-specification:Bitstream Charter" d="m 322.04241,89.778855 c -7.86485,0.41016 -15.18869,2.90187 -21.40625,6.8125 -8.29008,5.214175 -14.7926,12.649215 -20.25,20.937495 -10.91481,16.57656 -17.84513,36.9676 -23.21875,53.84375 -6.08326,19.10481 -9.89043,34.03973 -14.21875,44.40625 -4.32832,10.36652 -8.30632,15.67133 -16.15625,19.5625 -11.19585,5.54974 -19.52664,4.65111 -28.46875,0.96875 -8.94211,-3.68236 -17.88888,-10.83601 -26.375,-17.78125 l -12.65625,15.46875 c 8.43073,6.8999 18.61905,15.54674 31.40625,20.8125 12.7872,5.26576 28.80848,6.47933 44.96875,-1.53125 12.67805,-6.28446 20.43964,-17.13755 25.71875,-29.78125 5.27911,-12.6437 8.92875,-27.58423 14.8125,-46.0625 5.24323,-16.46667 12.0458,-35.49715 20.875,-48.90625 4.4146,-6.70455 9.27566,-11.89096 14.21875,-15 4.94309,-3.10904 9.8019,-4.42144 16.21875,-3.59375 14.85701,1.91637 20.75108,7.08863 24.96875,15.8125 4.21767,8.72387 5.54463,22.23962 5.25,38.03125 l 20,0.375 c 0.31527,-16.89824 -0.49862,-33.16037 -7.25,-47.125 -6.75138,-13.96463 -20.6354,-24.387295 -40.40625,-26.937495 -2.72427,-0.3514 -5.40963,-0.44922 -8.03125,-0.3125 z" id="path3735"/>
    <path id="path3743" d="m 159.29241,232.97268 c 8.43073,6.8999 18.61905,15.54674 31.40625,20.8125 12.7872,5.26576 28.80848,6.47933 44.96875,-1.53125 12.67805,-6.28446 20.43964,-17.13755 25.71875,-29.78125 5.27911,-12.6437 8.92875,-27.58423 14.8125,-46.0625 5.24323,-16.46667 12.0458,-35.49715 20.875,-48.90625 4.4146,-6.70455 9.27566,-11.89096 14.21875,-15 4.94309,-3.10904 9.8019,-4.42144 16.21875,-3.59375 14.85701,1.91637 20.75108,7.08863 24.96875,15.8125 4.21767,8.72387 5.54463,22.23962 5.25,38.03125 m 20,0.375 c 0.31527,-16.89824 -0.49862,-33.16037 -7.25,-47.125 -6.75138,-13.96463 -20.6354,-24.387295 -40.40625,-26.937495 -2.72427,-0.3514 -5.40963,-0.44922 -8.03125,-0.3125 -7.86485,0.41016 -15.18869,2.90187 -21.40625,6.8125 -8.29008,5.214175 -14.7926,12.649215 -20.25,20.937495 -10.91481,16.57656 -17.84513,36.9676 -23.21875,53.84375 -6.08326,19.10481 -9.89043,34.03973 -14.21875,44.40625 -4.32832,10.36652 -8.30632,15.67133 -16.15625,19.5625 -11.19585,5.54974 -19.52664,4.65111 -28.46875,0.96875 -8.94211,-3.68236 -17.88888,-10.83601 -26.375,-17.78125" style="font-size:medium;font-style:normal;font-variant:normal;font-weight:normal;font-stretch:normal;text-indent:0;text-align:start;text-decoration:none;line-height:normal;letter-spacing:normal;word-spacing:normal;text-transform:none;direction:ltr;block-progression:tb;writing-mode:lr-tb;text-anchor:start;color:#000000;fill:none;stroke:#000000;stroke-width:5.5;stroke-miterlimit:4;stroke-dasharray:none;marker:none;visibility:visible;display:inline;overflow:visible;enable-background:accumulate;font-family:Bitstream Charter;-inkscape-font-specification:Bitstream Charter" sodipodi:nodetypes="cssssssssccsscssssssc"/>
    <path style="font-size:medium;font-style:normal;font-variant:normal;font-weight:normal;font-stretch:normal;text-indent:0;text-align:start;text-decoration:none;line-height:normal;letter-spacing:normal;word-spacing:normal;text-transform:none;direction:ltr;block-progression:tb;writing-mode:lr-tb;text-anchor:start;color:#000000;fill:#ffffff;fill-opacity:1;stroke:none;stroke-width:4.4369998;marker:none;visibility:visible;display:inline;overflow:visible;enable-background:accumulate;font-family:Bitstream Charter;-inkscape-font-specification:Bitstream Charter" d="m 322.41377,162.25577 c -10.02158,0 -18.16245,8.14086 -18.16245,18.16245 l 0,33.88699 0,2.13317 0,2.16365 0,73.65544 c 0,34.96034 28.21208,63.17241 63.17242,63.17241 34.96034,0 63.20289,-28.21079 63.20289,-63.17241 l 0,-75.81909 0,-2.13317 -0.0304,0 0,-33.88699 c 0,-10.02159 -8.14086,-18.16245 -18.16245,-18.16245 l -90.01993,0 z" id="path3698"/>
    <path style="font-size:medium;font-style:normal;font-variant:normal;font-weight:normal;font-stretch:normal;text-indent:0;text-align:start;text-decoration:none;line-height:normal;letter-spacing:normal;word-spacing:normal;text-transform:none;direction:ltr;block-progression:tb;writing-mode:lr-tb;text-anchor:start;color:#000000;fill:#000000;fill-opacity:1;stroke:#000000;stroke-width:1.83700001;stroke-miterlimit:4;stroke-dasharray:none;marker:none;visibility:visible;display:inline;overflow:visible;enable-background:accumulate;font-family:Bitstream Charter;-inkscape-font-specification:Bitstream Charter" d="m 320.75744,159.64641 c -10.27681,0 -18.625,8.34819 -18.625,18.625 l 0,34.75 0,2.1875 0,2.21875 0,75.53125 c 0,35.85069 28.93056,64.78125 64.78125,64.78125 35.85069,0 64.8125,-28.92925 64.8125,-64.78125 l 0,-77.75 0,-2.1875 -0.0312,0 0,-34.75 c 0,-10.27681 -8.34819,-18.625 -18.625,-18.625 l -92.3125,0 z m 0,4.4375 50.3125,0 0,48.90625 -64.5,0 0,-34.71875 c 0,-7.89303 6.29447,-14.1875 14.1875,-14.1875 z m 54.75,0 37.5625,0 c 7.89303,0 14.1875,6.29447 14.1875,14.1875 l 0,34.71875 -51.75,0 0,-48.90625 z m -69,53.34375 120.84375,0 0,75.53125 c 0,33.50854 -26.92765,60.40625 -60.4375,60.40625 -33.50985,0 -60.40625,-26.8964 -60.40625,-60.40625 l 0,-75.53125 z" id="rect2890"/>
  </g>
  <metadata>
    <rdf:RDF>
      <cc:Work>
        <dc:format>image/svg+xml</dc:format>
        <dc:type rdf:resource="http://purl.org/dc/dcmitype/StillImage"/>
        <cc:license rdf:resource="http://creativecommons.org/licenses/publicdomain/"/>
        <dc:publisher>
          <cc:Agent rdf:about="http://openclipart.org/">
            <dc:title>Open Clip Art Library</dc:title>
          </cc:Agent>
        </dc:publisher>
        <dc:title>mouse</dc:title>
        <dc:date>2010-05-12T14:59:48</dc:date>
        <dc:description>mouse</dc:description>
        <dc:source>http://openclipart.org/detail/60001/mouse-by-voyeg3r</dc:source>
        <dc:creator>
          <cc:Agent>
            <dc:title>voyeg3r</dc:title>
          </cc:Agent>
        </dc:creator>
        <dc:subject>
          <rdf:Bag>
            <rdf:li>clip art</rdf:li>
            <rdf:li>clipart</rdf:li>
            <rdf:li>computer</rdf:li>
            <rdf:li>hardware</rdf:li>
            <rdf:li>mouse</rdf:li>
          </rdf:Bag>
        </dc:subject>
      </cc:Work>
      <cc:License rdf:about="http://creativecommons.org/licenses/publicdomain/">
        <cc:permits rdf:resource="http://creativecommons.org/ns#Reproduction"/>
        <cc:permits rdf:resource="http://creativecommons.org/ns#Distribution"/>
        <cc:permits rdf:resource="http://creativecommons.org/ns#DerivativeWorks"/>
      </cc:License>
    </rdf:RDF>
  </metadata>
</svg>